<svg width="105" height="99" viewBox="0 0 105 99" fill="none" xmlns="http://www.w3.org/2000/svg">
<path fill-rule="evenodd" clip-rule="evenodd" d="M104.375 98.5C96.5547 64.6634 79.5415 2.4512 78.3384 1.24417C76.6899 -0.409152 63.0894 21.4988 63.0894 21.4988C54.3008 20.1009 48.8335 20.1939 38.3608 21.4988C38.3608 21.4988 28.0571 0.830838 25.9966 0.00417789C24.4995 -0.596408 8.52979 63.7012 0 98.5H104.375ZM68.835 54.604C65.0454 54.9651 62.9492 53.6424 62.1021 50.5886C61.9688 47.866 62.8516 46.0432 64.7959 44.8535C64.6509 45.5335 64.5688 46.3047 64.5688 47.1221C64.5688 49.8616 65.4912 52.0823 66.6294 52.0823C67.7676 52.0823 68.6899 49.8616 68.6899 47.1221C68.6899 45.7505 68.4585 44.5093 68.085 43.6114C71.4253 42.9141 73.7417 44.1514 74.5332 47.0039C75.3804 50.0576 73.0459 54.2029 68.835 54.604ZM55.9541 65.7542C55.6182 66.3264 54.7793 66.3162 54.4575 65.7356C54.0215 64.9492 53.6138 64.2952 53.105 63.5904C52.7266 63.0664 53.0298 62.3113 53.6724 62.2491C54.3711 62.1812 55.0068 62.1399 55.6655 62.1219C56.0405 62.1116 56.4233 62.1089 56.8296 62.1131C57.4937 62.1199 57.8555 62.8833 57.4683 63.4256C57.2344 63.7542 57.0181 64.0672 56.8105 64.3804C56.6631 64.6028 56.52 64.8255 56.3779 65.0535C56.2368 65.2798 56.0967 65.5115 55.9541 65.7542ZM45.8857 50.5886C45.0381 53.6424 42.9424 54.9651 39.1523 54.604C34.9414 54.2029 32.6069 50.0576 33.4541 47.0039C34.1997 44.3167 36.2988 43.063 39.332 43.5095C38.6558 44.3235 38.1919 46.0054 38.1919 47.9488C38.1919 50.6883 39.1143 52.909 40.2524 52.909C41.3906 52.909 42.313 50.6883 42.313 47.9488C42.313 46.3841 42.0122 44.9883 41.542 44.0791C44.6333 45.1919 46.0513 47.1887 45.8857 50.5886Z" fill="#1E212C"/>
</svg>
